<?xml version="1.0" encoding="UTF-8"?>
<svg width="128px" height="128px" viewBox="0 0 128 128" version="1.1" xmlns="http://www.w3.org/2000/svg" xmlns:xlink="http://www.w3.org/1999/xlink">
    <!-- Generator: Sketch 42 (36781) - http://www.bohemiancoding.com/sketch -->
    <title>Group</title>
    <desc>Created with Sketch.</desc>
    <defs></defs>
    <g id="Page-1" stroke="none" stroke-width="1" fill="none" fill-rule="evenodd">
        <g id="Group">
            <rect id="Rectangle" fill="#D8D8D8" x="0" y="0" width="128" height="128"></rect>
            <path d="M55.8181818,109.181818 L61.9545455,80.5454545 L55.8181818,72.3636364 L47.6363636,68.2727273 L55.8181818,109.181818 Z M72.1818182,109.181818 L80.3636364,68.2727273 L72.1818182,72.3636364 L66.0454545,80.5454545 L72.1818182,109.181818 Z M82.4090909,44.6221591 C82.3238636,44.4517045 82.2386364,44.3238636 82.1534091,44.2386364 C81.7272727,43.8977273 79.6818182,43.7272727 76.0170455,43.7272727 C73.0340909,43.7272727 69.4758523,44.1321023 65.3423295,44.9417614 C65.0440341,45.0269886 64.5965909,45.0696023 64,45.0696023 C63.4034091,45.0696023 62.9559659,45.0269886 62.6576705,44.9417614 C58.5241477,44.1321023 54.9659091,43.7272727 51.9829545,43.7272727 C48.3181818,43.7272727 46.2727273,43.8977273 45.8465909,44.2386364 C45.7613636,44.3238636 45.6761364,44.4517045 45.5909091,44.6221591 C45.6761364,45.3892045 45.7613636,45.9644886 45.8465909,46.3480114 C45.9318182,46.4758523 46.0916193,46.6143466 46.3259943,46.7634943 C46.5603693,46.912642 46.7201705,47.1363636 46.8053977,47.4346591 C46.890625,47.6051136 47.0504261,48.0419034 47.2848011,48.7450284 C47.5191761,49.4481534 47.6683239,49.8849432 47.7322443,50.0553977 C47.7961648,50.2258523 47.9559659,50.5880682 48.2116477,51.1420455 C48.4673295,51.6960227 48.6484375,52.0582386 48.7549716,52.2286932 C48.8615057,52.3991477 49.053267,52.6974432 49.3302557,53.1235795 C49.6072443,53.5497159 49.8629261,53.837358 50.0973011,53.9865057 C50.3316761,54.1356534 50.6299716,54.3380682 50.9921875,54.59375 C51.3544034,54.8494318 51.7272727,55.0198864 52.1107955,55.1051136 C52.4943182,55.1903409 52.931108,55.2755682 53.4211648,55.3607955 C53.9112216,55.4460227 54.4332386,55.4886364 54.9872159,55.4886364 C56.5213068,55.4886364 57.7784091,55.2223011 58.7585227,54.6896307 C59.7386364,54.1569602 60.431108,53.5177557 60.8359375,52.772017 C61.240767,52.0262784 61.5497159,51.2911932 61.7627841,50.5667614 C61.9758523,49.8423295 62.2208807,49.2137784 62.4978693,48.681108 C62.774858,48.1484375 63.1477273,47.8821023 63.6164773,47.8821023 L64.3835227,47.8821023 C64.8522727,47.8821023 65.225142,48.1484375 65.5021307,48.681108 C65.7791193,49.2137784 66.0241477,49.8423295 66.2372159,50.5667614 C66.4502841,51.2911932 66.759233,52.0262784 67.1640625,52.772017 C67.568892,53.5177557 68.2613636,54.1569602 69.2414773,54.6896307 C70.2215909,55.2223011 71.4786932,55.4886364 73.0127841,55.4886364 C73.5667614,55.4886364 74.0887784,55.4460227 74.5788352,55.3607955 C75.068892,55.2755682 75.5056818,55.1903409 75.8892045,55.1051136 C76.2727273,55.0198864 76.6455966,54.8494318 77.0078125,54.59375 C77.3700284,54.3380682 77.6683239,54.1356534 77.9026989,53.9865057 C78.1370739,53.837358 78.3927557,53.5497159 78.6697443,53.1235795 C78.946733,52.6974432 79.1384943,52.3991477 79.2450284,52.2286932 C79.3515625,52.0582386 79.5326705,51.6960227 79.7883523,51.1420455 C80.0440341,50.5880682 80.2038352,50.2258523 80.2677557,50.0553977 C80.3316761,49.8849432 80.4808239,49.4481534 80.7151989,48.7450284 C80.9495739,48.0419034 81.109375,47.6051136 81.1946023,47.4346591 C81.2798295,47.1363636 81.4396307,46.912642 81.6740057,46.7634943 C81.9083807,46.6143466 82.0681818,46.4758523 82.1534091,46.3480114 C82.2386364,45.9644886 82.3238636,45.3892045 82.4090909,44.6221591 Z M109,100.808239 C109,105.964489 107.444602,110.012784 104.333807,112.953125 C101.223011,115.893466 97.0894886,117.363636 91.9332386,117.363636 L36.0667614,117.363636 C30.9105114,117.363636 26.7769886,115.893466 23.6661932,112.953125 C20.5553977,110.012784 19,105.964489 19,100.808239 C19,98.2088068 19.0958807,95.6946023 19.287642,93.265625 C19.4794034,90.8366477 19.884233,88.162642 20.5021307,85.243608 C21.1200284,82.3245739 21.9190341,79.6931818 22.8991477,77.3494318 C23.8792614,75.0056818 25.2322443,72.8004261 26.9580966,70.7336648 C28.6839489,68.6669034 30.6761364,67.0795455 32.9346591,65.9715909 L27.1818182,51.9090909 L40.8607955,51.9090909 C39.9232955,49.1818182 39.4545455,46.4545455 39.4545455,43.7272727 C39.4545455,43.2159091 39.4971591,42.5340909 39.5823864,41.6818182 C31.3153409,39.9772727 27.1818182,37.9318182 27.1818182,35.5454545 C27.1818182,33.1164773 31.65625,31.0071023 40.6051136,29.2173295 C41.3295455,26.5752841 42.4268466,23.7201705 43.897017,20.6519886 C45.3671875,17.5838068 46.8693182,15.1548295 48.4034091,13.3650568 C49.7670455,11.7883523 51.3863636,11 53.2613636,11 C54.5397727,11 56.3295455,11.6605114 58.6306818,12.9815341 C60.9318182,14.3025568 62.7215909,14.9630682 64,14.9630682 C65.2784091,14.9630682 67.0681818,14.3025568 69.3693182,12.9815341 C71.6704545,11.6605114 73.4602273,11 74.7386364,11 C76.6136364,11 78.2329545,11.7883523 79.5965909,13.3650568 C81.1306818,15.1548295 82.6328125,17.5838068 84.102983,20.6519886 C85.5731534,23.7201705 86.6704545,26.5752841 87.3948864,29.2173295 C96.34375,31.0071023 100.818182,33.1164773 100.818182,35.5454545 C100.818182,37.9318182 96.6846591,39.9772727 88.4176136,41.6818182 C88.7159091,45.1335227 88.2897727,48.5426136 87.1392045,51.9090909 L100.818182,51.9090909 L95.5767045,66.2911932 C98.2613636,67.6974432 100.551847,69.7535511 102.448153,72.459517 C104.34446,75.165483 105.740057,78.2230114 106.634943,81.6321023 C107.52983,85.0411932 108.147727,88.2691761 108.488636,91.3160511 C108.829545,94.3629261 109,97.5269886 109,100.808239 Z" id="Shape" fill="#333333" fill-rule="nonzero"></path>
        </g>
    </g>
</svg>